HIERARCHY
ROOT Pelvis
{
	OFFSET 0.000000 0.000000 0.000000
	CHANNELS 6 Xposition Yposition Zposition Zrotation Yrotation Xrotation 
	JOINT Left_hip
	{
		OFFSET 0.076090 -0.089427 -0.010735
		CHANNELS 3 Zrotation Yrotation Xrotation
		JOINT Left_knee
		{
			OFFSET 0.030200 -0.359518 -0.003501
			CHANNELS 3 Zrotation Yrotation Xrotation
			JOINT Left_ankle
			{
				OFFSET -0.011005 -0.371022 -0.045888
				CHANNELS 3 Zrotation Yrotation Xrotation
				JOINT Left_foot
				{
					OFFSET 0.023930 -0.052103 0.111084
					CHANNELS 3 Zrotation Yrotation Xrotation
					End Site
					{
						OFFSET 0.000000 0.000000 0.000000
					}
				}
			}
		}
	}
	JOINT Right_hip
	{
		OFFSET -0.073836 -0.088112 -0.007709
		CHANNELS 3 Zrotation Yrotation Xrotation
		JOINT Right_knee
		{
			OFFSET -0.035715 -0.367809 -0.006536
			CHANNELS 3 Zrotation Yrotation Xrotation
			JOINT Right_ankle
			{
				OFFSET 0.013718 -0.371958 -0.043815
				CHANNELS 3 Zrotation Yrotation Xrotation
				JOINT Right_foot
				{
					OFFSET -0.021936 -0.046387 0.114542
					CHANNELS 3 Zrotation Yrotation Xrotation
					End Site
					{
						OFFSET 0.000000 0.000000 0.000000
					}
				}
			}
		}
	}
	JOINT Spine1
	{
		OFFSET -0.001865 0.102064 -0.019455
		CHANNELS 3 Zrotation Yrotation Xrotation
		JOINT Spine2
		{
			OFFSET 0.003082 0.129260 -0.001938
			CHANNELS 3 Zrotation Yrotation Xrotation
			JOINT Spine3
			{
				OFFSET 0.001104 0.048093 0.026561
				CHANNELS 3 Zrotation Yrotation Xrotation
				JOINT Neck
				{
					OFFSET -0.002010 0.204222 -0.047183
					CHANNELS 3 Zrotation Yrotation Xrotation
					JOINT Head
					{
						OFFSET 0.005050 0.063649 0.048489
						CHANNELS 3 Zrotation Yrotation Xrotation
						End Site
						{
							OFFSET 0.000000 0.000000 0.000000
						}
					}
				}
				JOINT Left_collar
				{
					OFFSET 0.072979 0.114065 -0.031633
					CHANNELS 3 Zrotation Yrotation Xrotation
					JOINT Left_shoulder
					{
						OFFSET 0.083419 0.032092 -0.006530
						CHANNELS 3 Zrotation Yrotation Xrotation
						JOINT Left_elbow
						{
							OFFSET 0.239393 -0.012014 -0.025060
							CHANNELS 3 Zrotation Yrotation Xrotation
							JOINT Left_wrist
							{
								OFFSET 0.227297 0.008116 0.000384
								CHANNELS 3 Zrotation Yrotation Xrotation
								JOINT Left_palm
								{
									OFFSET 0.074607 -0.009248 -0.012277
									CHANNELS 3 Zrotation Yrotation Xrotation
									End Site
									{
										OFFSET 0.000000 0.000000 0.000000
									}
								}
							}
						}
					}
				}
				JOINT Right_collar
				{
					OFFSET -0.074980 0.111880 -0.037894
					CHANNELS 3 Zrotation Yrotation Xrotation
					JOINT Right_shoulder
					{
						OFFSET -0.087565 0.034353 -0.009323
						CHANNELS 3 Zrotation Yrotation Xrotation
						JOINT Right_elbow
						{
							OFFSET -0.236838 -0.013719 -0.019794
							CHANNELS 3 Zrotation Yrotation Xrotation
							JOINT Right_wrist
							{
								OFFSET -0.235053 0.006433 -0.003853
								CHANNELS 3 Zrotation Yrotation Xrotation
								JOINT Right_palm
								{
									OFFSET -0.075499 -0.006894 -0.009792
									CHANNELS 3 Zrotation Yrotation Xrotation
									End Site
									{
										OFFSET 0.000000 0.000000 0.000000
									}
								}
							}
						}
					}
				}
			}
		}
	}
}
MOTION
Frames: 14
Frame Time: 0.100000
-0.149434 -0.042327 0.183069 169.423813 46.674959 -19.879357 0.092796 -0.747419 8.793797 -3.169583 -4.644082 -6.722947 -3.001169 4.360266 -2.202479 6.133668 12.608093 -5.187583 1.143912 1.261130 10.665122 3.449935 6.636468 -5.130318 9.784278 -3.498781 -5.654916 -13.101751 8.580599 2.244349 0.118476 1.288039 -2.771477 2.131146 -5.258571 7.857119 1.076556 -1.538019 -2.096470 -0.243736 -0.994998 -5.722520 -0.915062 -9.332331 3.898054 -16.372851 -18.326790 -1.048432 -43.904818 -29.298681 10.844814 64.745297 -60.329111 -57.788646 -3.109244 -1.458517 -18.627802 -13.279218 -1.718022 -3.166085 15.136645 17.903405 -3.958884 52.465949 18.120027 21.816267 -92.163395 68.392536 -80.513926 13.405296 3.944873 -26.901436 11.174184 6.483736 -2.195648 
-0.149576 -0.041788 0.181657 168.942426 47.125754 -18.723576 0.171274 -1.066388 7.099486 -3.105731 -3.523757 -6.783184 -3.346056 3.270360 -1.671948 6.837289 13.273869 -6.701344 1.304950 1.642609 8.923161 3.322403 4.765577 -4.953877 9.548947 -1.059929 -4.776629 -12.667176 4.122068 1.693315 0.773757 0.827540 -1.437092 1.483946 -3.859660 6.707622 1.051136 -1.316593 -2.174967 2.119707 -7.657441 -9.175115 1.028711 -12.979905 -1.003039 -18.913285 -10.108958 -0.106452 -56.228254 -22.936010 14.788107 99.894359 -60.716167 -85.747159 4.726332 -0.645342 -26.340605 -14.047208 -2.298645 -2.939843 14.007618 14.348986 -4.694726 56.457397 19.964593 19.359609 -110.466561 56.143853 -97.940822 -1.088628 2.098975 -30.615228 13.904286 6.988203 -2.741178 
-0.149511 -0.041226 0.180207 168.073793 48.968528 -18.774961 0.279853 -1.154040 6.140677 -3.006274 -4.311797 -6.535384 -3.558870 2.916119 -1.678509 6.826492 11.747164 -6.610033 1.481163 1.061602 8.444984 3.097270 3.789156 -5.046814 9.994895 -0.470665 -4.750913 -13.593086 2.066836 1.344209 0.779122 1.030515 0.183398 1.236500 -3.646169 6.277589 1.002934 -1.223230 -1.938068 2.649651 -11.272490 -11.437240 3.354794 -15.163432 -5.625264 -20.403130 -5.682598 0.658638 -59.846826 -17.550576 14.128349 111.586893 -58.692743 -93.586461 17.061694 2.084736 -27.030512 -16.651442 -3.961601 -4.144821 14.446530 11.196615 -4.606403 56.066754 18.174581 14.523263 -114.875358 47.878706 -100.325062 -16.339947 1.118239 -28.279760 17.754185 8.399568 -4.133689 
-0.148559 -0.041216 0.179558 167.223924 50.815037 -19.194704 0.345992 -1.356282 5.641254 -2.893797 -5.728952 -6.564001 -4.109402 3.187778 -1.549986 7.391385 10.777332 -6.525422 1.569878 0.383215 8.428466 3.050721 3.797712 -5.448334 10.866114 -1.702724 -4.892035 -15.406263 2.811235 1.184113 0.742525 1.126529 0.930640 0.884928 -3.584039 6.142445 1.047421 -1.157249 -1.662275 1.800989 -12.362394 -11.929993 4.150371 -15.640845 -7.483872 -19.740568 -4.900957 0.203063 -58.073500 -16.179299 12.721364 107.680490 -57.949750 -89.993621 19.976015 3.944051 -24.784153 -17.448275 -4.763840 -5.549808 13.851198 10.400388 -4.764348 53.099377 16.248368 10.718184 -102.979170 46.196956 -91.561067 -18.770000 -0.714617 -25.976251 18.714820 8.796849 -5.626891 
-0.148967 -0.041304 0.180253 166.820365 52.329385 -18.497816 0.295123 -2.360575 4.553665 -2.933169 -5.383029 -6.695252 -4.137606 2.849417 -1.065886 7.747469 9.734412 -6.542252 1.327402 -0.466169 7.639199 3.197970 3.358027 -5.711246 12.502140 -1.844221 -4.823071 -18.733716 3.371643 0.580910 0.562635 1.819080 0.570810 1.159442 -3.673238 6.639753 1.054358 -0.650662 -1.541393 0.084799 -13.312063 -13.259264 4.965933 -16.708427 -9.025357 -19.444798 -4.803371 -0.804720 -58.005340 -14.739840 11.672257 117.330159 -56.590654 -96.354399 15.985325 2.720085 -20.552646 -19.065181 -6.449190 -4.435110 14.689230 9.650067 -4.745172 50.865258 12.845456 8.733631 -113.190585 46.095524 -93.043311 -12.741095 2.156991 -4.697877 19.139745 11.182233 -7.002130 
-0.151013 -0.041539 0.181765 165.903156 54.129549 -18.717252 0.432955 -3.027081 3.994336 -2.975276 -4.919798 -6.636144 -3.116650 1.752516 -0.907204 5.923300 9.393570 -6.046829 1.531083 -0.662588 7.265063 3.242432 1.671594 -5.516209 11.337733 -0.514822 -4.908322 -17.202910 1.162578 1.219934 0.512375 2.031797 0.924535 1.540920 -3.778570 6.549665 0.970931 -0.572157 -1.941954 -0.207715 -13.723164 -13.383809 4.763064 -18.089845 -9.851058 -20.148149 -3.283803 -0.259287 -60.113753 -14.388570 10.360999 121.921914 -55.517692 -96.557893 10.600224 -0.163585 -22.993917 -17.412283 -5.915801 -1.235353 16.272003 8.516669 -4.225097 52.657656 13.378568 7.921286 -121.528639 43.498015 -93.192290 -11.856873 6.107938 4.626832 18.936711 11.347116 -4.976754 
-0.154501 -0.041665 0.184450 165.317350 54.274054 -20.297086 0.599706 -3.401812 5.042815 -2.679688 -7.678654 -5.498953 -3.314436 1.783908 -4.148368 7.673357 13.903242 -6.511785 2.459523 0.292403 9.867718 2.039110 4.246228 -7.524795 8.443465 -2.298268 -6.610171 -12.758687 0.029127 0.722729 0.761074 1.612174 0.706106 1.134252 -2.911797 7.352573 0.687430 -1.154492 -1.149094 2.417590 -10.325979 -14.367169 0.340242 -16.465140 -7.269213 -18.847721 0.626208 0.293922 -65.020668 -14.767563 11.481352 120.437383 -57.234025 -91.310327 1.188057 0.137518 -29.572669 -13.400258 -4.225766 -2.293844 15.144725 6.807156 -4.803573 58.428461 16.458690 10.233578 -111.205086 42.343545 -88.412130 -10.145374 1.231850 -14.480991 18.665584 9.194998 -6.041087 
-0.158363 -0.041828 0.187454 165.270679 54.712410 -20.457900 0.514594 -3.706715 5.598776 -2.654165 -7.815137 -5.676007 -3.420274 1.917488 -4.405189 8.424164 13.839359 -6.538318 2.414233 0.050737 10.471903 2.019058 4.405743 -7.737919 8.994702 -2.671413 -6.751713 -13.838541 0.368718 -0.026875 0.727815 1.826842 -0.047391 1.156839 -2.616432 8.018211 0.778267 -1.005155 -0.822994 1.250787 -6.448242 -13.598021 -1.487567 -12.353682 -6.784650 -19.370851 2.069780 0.522148 -65.490277 -12.827735 11.262948 122.512518 -58.139226 -93.218936 0.146683 -0.121709 -29.701356 -13.713879 -4.703230 -2.536973 15.976038 5.265125 -4.221402 58.817274 15.391443 11.209118 -116.013107 43.589294 -90.995691 -8.969283 2.377407 -11.352501 18.946578 9.464322 -6.387707 
-0.161876 -0.042014 0.189804 165.417892 54.717151 -20.487161 0.438502 -3.699780 6.133095 -2.674181 -8.088356 -5.841961 -3.631186 2.097100 -4.610843 8.961344 13.972357 -6.579230 2.395673 -0.068669 10.899253 1.938678 4.726980 -7.694866 9.207891 -3.142378 -7.079112 -14.367501 0.938416 -0.368119 0.858458 1.729567 -0.679343 0.913132 -2.282888 8.088798 0.712413 -0.909455 -0.532571 0.632040 -3.115518 -12.572274 -3.355845 -8.645594 -5.380959 -19.378801 3.127204 0.459972 -65.164404 -11.596970 10.731528 123.155187 -58.143283 -93.703443 0.530278 0.130648 -29.333241 -13.697694 -4.785686 -3.045026 15.842569 4.819826 -4.235877 58.162609 16.427073 11.708243 -115.785198 44.842640 -90.925135 -8.675147 2.403016 -10.833448 18.883715 9.187417 -6.424046 
-0.165142 -0.042213 0.192526 165.952648 53.991292 -20.730568 0.327173 -3.544391 7.283781 -2.657372 -8.409805 -5.987170 -3.331908 2.359586 -5.084846 8.273753 14.132286 -6.269695 2.432292 -0.123466 11.809869 1.823133 5.185928 -7.487236 8.433585 -3.341043 -7.661020 -12.722949 1.176006 0.100739 1.233642 1.677919 -1.142173 0.476493 -1.814395 8.117196 0.606650 -0.659439 -0.434453 -0.095836 -0.619075 -11.074323 -5.411665 -5.462516 -3.718207 -19.102593 2.145260 0.019614 -63.935432 -12.328728 11.051344 123.377058 -59.502487 -93.290822 1.177535 -0.860358 -27.376869 -12.253387 -3.987186 -2.362000 14.950108 6.556316 -4.292354 55.570925 19.462805 12.537580 -113.405231 49.637208 -88.464551 -7.528483 3.337317 -9.055559 17.141599 8.143372 -5.138230 
-0.167182 -0.042555 0.194913 167.023444 52.079446 -20.327795 0.235463 -3.696835 7.954385 -2.758907 -7.830411 -5.853062 -3.307661 2.960139 -5.922037 8.038220 13.061104 -4.992415 2.353542 0.036159 12.180420 1.944913 5.282415 -7.009850 7.292036 -2.694969 -8.627644 -9.974644 1.389584 2.323609 1.555698 1.793225 -2.255680 0.321946 -1.200206 8.242183 0.585792 0.147151 -0.852997 -0.855656 3.435863 -9.614225 -8.052453 -1.316017 0.651728 -18.584802 -1.946399 -0.475919 -62.838802 -14.066872 15.286513 133.044514 -63.157312 -101.397466 -3.404218 -4.338777 -26.387136 -9.987717 -2.027343 -0.812876 14.011024 11.484582 -3.961811 50.190221 26.049833 13.316280 -103.191863 57.549663 -79.650037 3.100142 3.993624 -10.250043 12.685471 5.874521 -2.156621 
-0.167585 -0.042916 0.196215 166.110859 53.207451 -22.238873 0.166588 -4.128598 9.559435 -2.421032 -7.749385 -5.998693 -3.219323 3.073432 -6.487302 8.808351 11.939072 -4.214329 2.228308 -0.787833 13.899729 2.300676 5.028689 -7.392172 9.026492 -2.775859 -8.751556 -12.870742 4.081564 2.902763 1.021020 2.900407 -2.514299 0.970943 -1.417629 9.763109 0.877884 1.297428 -1.306411 -0.633371 7.197047 -10.251058 -8.879249 -1.093427 4.173038 -17.875104 -10.093381 -0.218604 -63.882726 -16.106084 22.137301 152.992686 -67.946768 -117.811074 4.408654 -4.857264 -21.177151 -13.072581 -4.193437 -3.718942 15.717680 19.450345 -2.906067 46.027547 32.952042 9.440250 -85.111421 51.566541 -63.963043 -11.190892 6.943816 1.480022 17.338060 8.333109 -7.819662 
-0.168625 -0.042926 0.196414 165.184164 55.262390 -23.261845 -0.087091 -4.217485 9.992131 -2.117394 -8.449280 -6.394440 -3.962223 2.516472 -5.819638 10.367427 14.187738 -5.437784 1.971562 -1.208028 14.544418 2.347073 5.551417 -8.009001 10.542841 -4.700638 -8.848659 -16.538917 7.728011 1.604876 0.938502 2.911251 -3.192060 0.649961 -1.321682 10.630503 0.790783 1.283945 -1.234798 0.264220 8.188711 -10.501581 -9.287891 -0.929941 4.593872 -17.965556 -12.660700 0.015836 -66.320285 -16.584911 25.083468 158.745725 -67.798680 -124.785668 9.994652 -0.534527 -22.964573 -15.538400 -6.465425 -6.569286 15.101630 22.986046 -3.311713 45.696384 37.116163 8.761843 -79.912631 45.504589 -66.888311 -24.836030 3.719861 -0.504058 22.791388 11.342195 -13.039653 
-0.170071 -0.042754 0.196315 165.264571 55.472336 -22.947859 -0.284294 -5.111599 9.697916 -2.201545 -8.839413 -6.275565 -3.513152 3.112457 -5.927101 8.625727 11.136655 -5.325779 1.786668 -2.001651 14.651414 2.459959 5.200386 -8.141163 10.275680 -4.967198 -9.221365 -15.995601 6.583572 2.284001 1.608901 2.976638 -2.612381 -0.239055 -0.967143 9.764461 0.423746 1.757470 -0.804041 0.058352 2.669248 -11.151529 -6.555336 -2.673598 3.421137 -19.243719 -10.662749 0.422903 -65.728097 -14.184068 23.792326 160.008467 -68.069396 -124.112164 13.376463 -5.230563 -22.438634 -12.615873 -5.177029 -1.520196 13.925799 21.542765 -2.771417 37.488755 33.133580 4.811505 -81.019518 54.818151 -55.691424 -22.583160 13.487497 18.396886 17.836983 9.991686 -8.514965 
